<svg width="915" height="193" viewBox="0 0 915 193" fill="none" xmlns="http://www.w3.org/2000/svg">
<path d="M3.51562 174.016L6.46875 163.047H32.9062C38.1562 162.859 42 160.797 44.4375 156.859C45.1875 155.547 45.5625 154.375 45.5625 153.344V143.219C41.7188 145.938 37.875 147.391 34.0312 147.578V136.75C38.1562 136.75 41.4375 135.016 43.875 131.547C45 129.953 45.5625 128.359 45.5625 126.766V92.3125C45.5625 88.75 43.5938 85.9375 39.6562 83.875C37.7812 82.9375 35.9062 82.4688 34.0312 82.4688V71.3594C38.25 71.3594 41.9531 72.6719 45.1406 75.2969C45.3281 75.3906 45.4688 75.4844 45.5625 75.5781V71.3594H56.9531V153.344C56.9531 157.375 55.125 161.547 51.4688 165.859C46.875 171.203 41.2031 173.922 34.4531 174.016H3.51562ZM4.92188 126.906V91.75C5.01562 87.3438 6.98438 83.0312 10.8281 78.8125C15.4219 73.9375 21.0938 71.4531 27.8438 71.3594V82.4688C23.25 82.4688 19.7812 84.4375 17.4375 88.375C16.5938 89.7812 16.1719 91.0469 16.1719 92.1719V126.766C16.1719 129.578 17.625 132.062 20.5312 134.219C22.6875 135.719 25.125 136.469 27.8438 136.469V147.578C19.2188 147.484 12.6562 143.828 8.15625 136.609C6 133.141 4.92188 129.906 4.92188 126.906ZM67.7812 127.188V92.4531C67.7812 88.0469 69.75 83.7344 73.6875 79.5156C78.5625 74.4531 84.6562 71.9219 91.9688 71.9219V83.3125C86.4375 83.3125 82.5938 85.6094 80.4375 90.2031C79.7812 91.6094 79.4531 93.0156 79.4531 94.4219V125.359C79.4531 128.828 81.0469 131.781 84.2344 134.219C86.4844 135.906 89.0625 136.75 91.9688 136.75V148.141C83.0625 148.141 76.1719 144.531 71.2969 137.312C68.9531 133.75 67.7812 130.375 67.7812 127.188ZM98.0156 148.141V136.75C102.984 136.75 106.547 134.5 108.703 130C109.453 128.5 109.828 127.047 109.828 125.641V94.4219C109.828 90.5781 108.188 87.5312 104.906 85.2812C102.844 83.9688 100.5 83.3125 97.875 83.3125V71.9219C106.5 71.9219 113.156 75.4375 117.844 82.4688C120.188 85.9375 121.359 89.2656 121.359 92.4531V127.188C121.359 131.781 119.391 136.234 115.453 140.547C110.859 145.516 105.047 148.047 98.0156 148.141ZM133.031 112.281V101.031H177.469V112.281H133.031ZM189.562 148V71.9219H201.516V82.3281C203.953 78.2031 207.609 75.1562 212.484 73.1875C215.109 72.1562 217.688 71.6406 220.219 71.6406H222.75L219.938 83.1719C214.781 83.2656 210.188 86.0312 206.156 91.4688C203.062 95.7812 201.516 100.234 201.516 104.828V148H189.562ZM230.344 127.188V92.3125C230.438 88 232.5 83.7344 236.531 79.5156C241.406 74.5469 247.312 72.0156 254.25 71.9219V83.0312C249.75 83.0312 246.234 85 243.703 88.9375C242.672 90.625 242.156 92.1719 242.156 93.5781V103.141H273.656V93.5781C273.656 89.3594 271.5 86.2656 267.188 84.2969C265.219 83.3594 263.203 82.8906 261.141 82.8906V71.9219C267.609 71.9219 273.375 74.2188 278.438 78.8125C282.656 82.8438 284.812 87.2969 284.906 92.1719V114.531H242.156V127.188C242.156 129.812 243.656 132.25 246.656 134.5C249.094 136.188 251.672 137.031 254.391 137.031V148C245.859 148 239.156 144.531 234.281 137.594C231.656 133.938 230.344 130.469 230.344 127.188ZM261.141 148V136.891C266.766 136.891 270.984 134.453 273.797 129.578C274.359 128.547 274.781 127.562 275.062 126.625L285.047 130.281C283.359 136.75 279.516 141.625 273.516 144.906C269.672 146.969 265.547 148 261.141 148ZM294.188 174.016L297.141 163.047H323.578C328.828 162.859 332.672 160.797 335.109 156.859C335.859 155.547 336.234 154.375 336.234 153.344V143.219C332.391 145.938 328.547 147.391 324.703 147.578V136.75C328.828 136.75 332.109 135.016 334.547 131.547C335.672 129.953 336.234 128.359 336.234 126.766V92.3125C336.234 88.75 334.266 85.9375 330.328 83.875C328.453 82.9375 326.578 82.4688 324.703 82.4688V71.3594C328.922 71.3594 332.625 72.6719 335.812 75.2969C336 75.3906 336.141 75.4844 336.234 75.5781V71.3594H347.625V153.344C347.625 157.375 345.797 161.547 342.141 165.859C337.547 171.203 331.875 173.922 325.125 174.016H294.188ZM295.594 126.906V91.75C295.688 87.3438 297.656 83.0312 301.5 78.8125C306.094 73.9375 311.766 71.4531 318.516 71.3594V82.4688C313.922 82.4688 310.453 84.4375 308.109 88.375C307.266 89.7812 306.844 91.0469 306.844 92.1719V126.766C306.844 129.578 308.297 132.062 311.203 134.219C313.359 135.719 315.797 136.469 318.516 136.469V147.578C309.891 147.484 303.328 143.828 298.828 136.609C296.672 133.141 295.594 129.906 295.594 126.906ZM358.594 127.188V92.3125C358.688 88 360.75 83.7344 364.781 79.5156C369.656 74.5469 375.562 72.0156 382.5 71.9219V83.0312C378 83.0312 374.484 85 371.953 88.9375C370.922 90.625 370.406 92.1719 370.406 93.5781V103.141H401.906V93.5781C401.906 89.3594 399.75 86.2656 395.438 84.2969C393.469 83.3594 391.453 82.8906 389.391 82.8906V71.9219C395.859 71.9219 401.625 74.2188 406.688 78.8125C410.906 82.8438 413.062 87.2969 413.156 92.1719V114.531H370.406V127.188C370.406 129.812 371.906 132.25 374.906 134.5C377.344 136.188 379.922 137.031 382.641 137.031V148C374.109 148 367.406 144.531 362.531 137.594C359.906 133.938 358.594 130.469 358.594 127.188ZM389.391 148V136.891C395.016 136.891 399.234 134.453 402.047 129.578C402.609 128.547 403.031 127.562 403.312 126.625L413.297 130.281C411.609 136.75 407.766 141.625 401.766 144.906C397.922 146.969 393.797 148 389.391 148ZM420.047 148L440.016 109.469L420.609 71.9219H432.562L446.766 97.0938L460.969 71.9219H473.062L453.656 109.469L473.484 148H461.531L446.766 121.562L432 148H420.047ZM499.781 148V136.609H510.328C515.672 136.609 519.328 134.547 521.297 130.422C521.859 129.203 522.141 128.031 522.141 126.906V93.0156C522.141 90.3906 520.734 88.0469 517.922 85.9844C515.578 84.2031 512.766 83.3125 509.484 83.3125H499.219V71.9219H509.484C518.578 71.9219 525.516 75.4844 530.297 82.6094C532.641 86.0781 533.812 89.4062 533.812 92.5938V127.328C533.812 131.922 531.844 136.328 527.906 140.547C523.219 145.516 517.312 148 510.188 148H499.781ZM480.234 174.719V71.9219H492.609V174.719H480.234Z" fill="#00ADD8"/>
<rect x="83.5971" y="171" width="635.338" height="2" fill="#7A7878"/>
</svg>
